<svg xmlns="http://www.w3.org/2000/svg" version="1.1" xmlns:xlink="http://www.w3.org/1999/xlink" width="512" height="512" x="0" y="0" viewBox="0 0 64 64" style="enable-background:new 0 0 512 512" xml:space="preserve"><g><g fill="#000"><g fill-rule="evenodd" clip-rule="evenodd"><path d="M22 2a6 6 0 0 1 6 6v14a6 6 0 0 1-6 6H8a6 6 0 0 1-6-6V8a6 6 0 0 1 6-6zm2 6a2 2 0 0 0-2-2H8a2 2 0 0 0-2 2v14a2 2 0 0 0 2 2h14a2 2 0 0 0 2-2zM22 36a6 6 0 0 1 6 6v14a6 6 0 0 1-6 6H8a6 6 0 0 1-6-6V42a6 6 0 0 1 6-6zm2 6a2 2 0 0 0-2-2H8a2 2 0 0 0-2 2v14a2 2 0 0 0 2 2h14a2 2 0 0 0 2-2zM62 42a6 6 0 0 0-6-6H42a6 6 0 0 0-6 6v14a6 6 0 0 0 6 6h14a6 6 0 0 0 6-6zm-6-2a2 2 0 0 1 2 2v14a2 2 0 0 1-2 2H42a2 2 0 0 1-2-2V42a2 2 0 0 1 2-2z" fill="#000000" opacity="1" data-original="#000000"></path></g><path d="M62 15a2 2 0 0 1-2 2h-9v9a2 2 0 1 1-4 0v-9h-9a2 2 0 1 1 0-4h9V4a2 2 0 1 1 4 0v9h9a2 2 0 0 1 2 2z" fill="#000000" opacity="1" data-original="#000000"></path></g></g></svg>