<svg xmlns="http://www.w3.org/2000/svg" version="1.1" xmlns:xlink="http://www.w3.org/1999/xlink" width="512" height="512" x="0" y="0" viewBox="0 0 512 512" style="enable-background:new 0 0 512 512" xml:space="preserve" class=""><g><path d="m471.211 430.854-67.01-116.065c2.576-4.102 6.533-7.278 11.505-8.999 15.898-5.504 28.851-19.441 34.648-37.283 5.798-17.842 3.512-36.731-6.116-50.53-5.432-7.785-5.432-17.456-.001-25.24 9.627-13.798 11.915-32.688 6.118-50.53s-18.749-31.78-34.648-37.285c-8.971-3.106-14.656-10.93-14.837-20.419-.321-16.821-9.574-33.447-24.75-44.475-15.177-11.027-33.85-14.691-49.948-9.799-9.083 2.761-18.28-.228-24.004-7.799C292.021 9.012 274.763 1 256.002 1H256c-18.759 0-36.018 8.011-46.167 21.431-5.726 7.572-14.924 10.561-24.003 7.801-16.097-4.893-34.77-1.23-49.948 9.796-15.178 11.027-24.431 27.652-24.753 44.474-.182 9.491-5.866 17.315-14.834 20.42-15.898 5.503-28.852 19.441-34.649 37.283s-3.512 36.732 6.115 50.531c5.432 7.785 5.432 17.456.001 25.239-9.628 13.798-11.915 32.687-6.118 50.529 5.797 17.843 18.75 31.781 34.649 37.286 4.973 1.722 8.93 4.898 11.506 8.999l-67.01 116.065c-2.563 4.44-2.327 9.803.617 13.996s7.91 6.237 12.958 5.331l67.25-12.061 23.181 64.272c1.741 4.823 5.992 8.101 11.096 8.555.4.036.798.053 1.192.053 4.644 0 8.874-2.425 11.236-6.517l58.751-101.76c8.538 4.506 18.499 6.99 28.93 6.99 10.43 0 20.392-2.484 28.93-6.99l58.751 101.76c2.363 4.092 6.593 6.517 11.236 6.517.395 0 .793-.018 1.193-.053 5.104-.454 9.355-3.731 11.096-8.556l23.18-64.27 67.251 12.06c5.047.903 10.012-1.139 12.957-5.332 2.944-4.192 3.18-9.555.617-13.995zM157.669 490.93l-23.296-64.59a8.002 8.002 0 0 0-8.938-5.16L57.852 433.3l54.987-95.24c3.346 12.533 11.462 24.209 23.042 32.623 15.178 11.027 33.85 14.691 49.947 9.798 9.082-2.759 18.281.228 24.005 7.798a48.363 48.363 0 0 0 4.268 4.907zM256 393.713c-13.776 0-26.264-5.639-33.405-15.083-7.372-9.75-18.493-15.144-30.166-15.144-3.729 0-7.517.551-11.254 1.687-11.329 3.441-24.746.664-35.89-7.434-11.144-8.097-17.933-19.999-18.159-31.836-.308-16.126-10.356-29.956-25.599-35.232-11.188-3.874-20.41-14.009-24.666-27.11-4.257-13.102-2.753-26.72 4.022-36.43 9.229-13.227 9.229-30.321-.001-43.55-6.774-9.711-8.277-23.33-4.02-36.431s13.479-23.235 24.667-27.108c15.241-5.276 25.289-19.106 25.597-35.234.227-11.837 7.015-23.739 18.16-31.835 11.145-8.098 24.562-10.876 35.891-7.432 15.433 4.689 31.689-.593 41.418-13.459 7.142-9.444 19.63-15.082 33.406-15.081 13.775 0 26.263 5.639 33.403 15.082 9.728 12.866 25.985 18.147 41.419 13.458 11.327-3.442 24.746-.665 35.891 7.434 11.144 8.097 17.932 19.999 18.158 31.836.308 16.125 10.356 29.955 25.6 35.232 11.188 3.874 20.409 14.008 24.666 27.109 4.256 13.102 2.753 26.721-4.022 36.43-9.23 13.228-9.229 30.322 0 43.55 6.775 9.711 8.278 23.33 4.021 36.431s-13.478 23.234-24.666 27.108c-15.242 5.277-25.291 19.106-25.599 35.233-.227 11.838-7.015 23.739-18.16 31.836s-24.562 10.875-35.89 7.433c-15.432-4.689-31.69.592-41.418 13.458-7.141 9.444-19.629 15.082-33.404 15.082zm130.564 27.467a8 8 0 0 0-8.938 5.16l-23.295 64.589-56.431-97.741a48.577 48.577 0 0 0 4.267-4.906c5.724-7.571 14.924-10.557 24.003-7.799 16.098 4.892 34.771 1.23 49.947-9.797 11.582-8.415 19.697-20.092 23.043-32.625l54.987 95.241zm2.823-215.824c0-73.55-59.837-133.388-133.387-133.388s-133.387 59.837-133.387 133.388S182.45 338.744 256 338.744s133.387-59.838 133.387-133.388zM256 322.744c-64.728 0-117.387-52.66-117.387-117.388S191.272 87.968 256 87.968s117.387 52.66 117.387 117.388S320.727 322.744 256 322.744zm83.927-146.994a8.002 8.002 0 0 0-6.939-5.5l-50.121-4.209-19.492-46.368a8 8 0 0 0-14.75 0l-19.492 46.368-50.122 4.209a8 8 0 0 0-4.558 14.028l38.075 32.867-11.485 48.969a8.002 8.002 0 0 0 11.932 8.67L256 248.728l43.023 26.055a7.995 7.995 0 0 0 8.847-.371 8 8 0 0 0 3.086-8.299l-11.485-48.969 38.075-32.867a8 8 0 0 0 2.381-8.527zm-54.579 32.448a8 8 0 0 0-2.561 7.882l8.246 35.158-30.889-18.707a7.998 7.998 0 0 0-8.288 0l-30.89 18.707 8.246-35.158a8 8 0 0 0-2.561-7.882l-27.337-23.597 35.986-3.022a8 8 0 0 0 6.706-4.872L256 143.417l13.994 33.291a8 8 0 0 0 6.706 4.872l35.985 3.022z" fill="#000000" opacity="1" data-original="#000000" class=""></path></g></svg>