<svg xmlns="http://www.w3.org/2000/svg" version="1.1" xmlns:xlink="http://www.w3.org/1999/xlink" width="512" height="512" x="0" y="0" viewBox="0 0 24 24" style="enable-background:new 0 0 512 512" xml:space="preserve" class=""><g><path d="M6.75 7a.75.75 0 0 1-.75.75H4a.75.75 0 0 1 0-1.5h2a.75.75 0 0 1 .75.75zM6 11.25H4a.75.75 0 0 0 0 1.5h2a.75.75 0 0 0 0-1.5zm0 5H4a.75.75 0 0 0 0 1.5h2a.75.75 0 0 0 0-1.5zm3-8.5h11a.75.75 0 0 0 0-1.5H9a.75.75 0 0 0 0 1.5zm11 8.5H9a.75.75 0 0 0 0 1.5h11a.75.75 0 0 0 0-1.5zm0-5H9a.75.75 0 0 0 0 1.5h11a.75.75 0 0 0 0-1.5z" fill="#000000" opacity="1" data-original="#000000" class=""></path></g></svg>